Coordinates
nRows=10
nColumns=38

# SIMM Motion File Header:
name Coordinates
datacolumns 38
datarows 10
otherdata 1
range 1.76560000000000010000 1.77460000000000000000

Units are S.I. units (second, meters, Newtons, ...)
Angles are in degrees.

endheader
time	pelvis_tilt	pelvis_list	pelvis_rotation	pelvis_tx	pelvis_ty	pelvis_tz	hip_flexion_r	hip_adduction_r	hip_rotation_r	knee_angle_r	ankle_angle_r	subtalar_angle_r	mtp_angle_r	hip_flexion_l	hip_adduction_l	hip_rotation_l	knee_angle_l	ankle_angle_l	subtalar_angle_l	mtp_angle_l	lumbar_extension	lumbar_bending	lumbar_rotation	arm_flex_r	arm_add_r	arm_rot_r	elbow_flex_r	pro_sup_r	wrist_flex_r	wrist_dev_r	arm_flex_l	arm_add_l	arm_rot_l	elbow_flex_l	pro_sup_l	wrist_flex_l	wrist_dev_l
      1.76560000000000010000	     -4.48951605553324030000	     -0.47668654064542143000	     -2.26719918650114400000	      0.93073785582279711000	      1.08196544845668740000	     -0.32208579665469272000	     26.28481287287745600000	      5.50870776528664760000	      1.85072911649142660000	    -16.17910868839285900000	      8.74982309229661580000	      0.00000000000000000000	      0.00000000000000000000	     -5.54342558502139140000	      1.64838707847651380000	     -2.07868496814129910000	    -39.08658188705673800000	    -10.45332448005675400000	      0.00000000000000000000	      0.00000000000000000000	     -7.70179259966479180000	     -0.88753290399606921000	    -12.75018373489970400000	    -46.05882871216003600000	    -25.60909032848832500000	      0.11625040465266653000	     99.94592190210815400000	    102.70452802253479000000	      0.00000000000000000000	      0.00000000000000000000	    -19.24261402170235500000	    -18.86889368758031400000	     -0.07679258151047672900	    125.09969895152543000000	     99.79233532294824700000	      0.00000000000000000000	      0.00000000000000000000
      1.76659999999999990000	     -4.45900792403751820000	     -0.49397956514028157000	     -2.29939308171862140000	      0.93080434200537787000	      1.08153232160492240000	     -0.32203806704383126000	     26.22532947633121500000	      5.55554841104482570000	      1.89785747717779390000	    -16.28521422807888200000	      8.68542574416233570000	      0.00000000000000000054	     -0.00000000000000000307	     -5.47198291543670210000	      1.63442340449763070000	     -2.05589066984148780000	    -39.43652509815448300000	    -10.46479332928627500000	     -0.00000000000000000035	      0.00000000000000000035	     -7.73416784004372020000	     -0.84757507428931578000	    -12.68220688739437900000	    -45.99998986368535700000	    -25.63308542372859100000	      0.06428748914623765000	     99.99182610067913400000	    102.74399747694211000000	     -0.00000000000000000011	     -0.00000000000000000016	    -19.27968618654651000000	    -18.84464361275158200000	     -0.06354576266136154100	    125.06937026108599000000	     99.81996308172166700000	     -0.00000000000000000009	     -0.00000000000000000022
      1.76760000000000010000	     -4.42744328787301630000	     -0.51240455418481468000	     -2.33136110047631240000	      0.93086930959157865000	      1.08109237701602900000	     -0.32199209060551304000	     26.16494892541928900000	      5.60330850078689300000	      1.94511552161042920000	    -16.39427160821744100000	      8.61273394747080270000	      0.00000000000000000339	     -0.00000000000000001202	     -5.40068069177194140000	      1.61967960239169860000	     -2.03261242648257980000	    -39.78813635068445400000	    -10.46920965401759900000	     -0.00000000000000000164	      0.00000000000000000082	     -7.76811391601162170000	     -0.80609540650851408000	    -12.61391199209622200000	    -45.93932395492282700000	    -25.65771579906757100000	      0.01232271132250002500	    100.03708189880436000000	    102.78399801769729000000	     -0.00000000000000000021	     -0.00000000000000000318	    -19.31613077857341300000	    -18.81998968869270800000	     -0.04976614822398858800	    125.03789323818485000000	     99.84592400428509500000	     -0.00000000000000000002	     -0.00000000000000000154
      1.76859999999999990000	     -4.39435674332593430000	     -0.53200807589809840000	     -2.36295672442428950000	      0.93093281543902473000	      1.08064643495630250000	     -0.32194786793014191000	     26.10318363454294000000	      5.65214380882147790000	      1.99275665708062390000	    -16.50598841098599200000	      8.54140235698709030000	      0.00000000000000000481	     -0.00000000000000001381	     -5.33001313695526590000	      1.60403155278682450000	     -2.00879385912276790000	    -40.14116946772556800000	    -10.46651467269051000000	     -0.00000000000000000345	      0.00000000000000000465	     -7.80409233646664370000	     -0.76303815961065347000	    -12.54540750399627000000	    -45.87671439900446300000	    -25.68294908031010900000	     -0.03961708671748111200	    100.08166409876259000000	    102.82450253902826000000	     -0.00000000000000000053	     -0.00000000000000000483	    -19.35198949984833700000	    -18.79494692083653700000	     -0.03540652367140085400	    125.00537821278893000000	     99.87009409806542200000	     -0.00000000000000000161	     -0.00000000000000000294
      1.76960000000000010000	     -4.35802094338859640000	     -0.55280092181453511000	     -2.39383460509917660000	      0.93099518994979791000	      1.08019762629923630000	     -0.32190586601836602000	     26.03807448376411700000	      5.70187205597966070000	      2.04028832213034490000	    -16.61985506018760000000	      8.47184078314822740000	      0.00000000000000000238	     -0.00000000000000000725	     -5.26196726538982060000	      1.58746169979464560000	     -1.98414930504590540000	    -40.49501415384814600000	    -10.45691432512097700000	     -0.00000000000000000639	      0.00000000000000001066	     -7.84404684438703550000	     -0.71842111071517856000	    -12.47697486265592200000	    -45.81182307732223100000	    -25.70871303432087300000	     -0.09147320872596974300	    100.12561847815584000000	    102.86544902465567000000	     -0.00000000000000000175	     -0.00000000000000001368	    -19.38698852152611000000	    -18.76966440077793100000	     -0.02040156982334371100	    124.97197335979247000000	     99.89224081454467800000	     -0.00000000000000000318	     -0.00000000000000000463
      1.77060000000000000000	     -4.31826355076727090000	     -0.57481536586284010000	     -2.42396669810827840000	      0.93105626797607077000	      1.07974631797573980000	     -0.32186603522547558000	     25.96956982678038600000	      5.75254407402848590000	      2.08751897296844250000	    -16.73590635299734300000	      8.40553979433319930000	     -0.00000000000000002418	      0.00000000000000000164	     -5.19671468842732410000	      1.56988869745802840000	     -1.95872377367499120000	    -40.84956671446006700000	    -10.44030798096976100000	     -0.00000000000000000878	      0.00000000000000000434	     -7.88816298789466060000	     -0.67221292435352786000	    -12.40861254789115100000	    -45.74457931102131900000	    -25.73499335072827800000	     -0.14322529725344288000	    100.16891731041923000000	    102.90678774862582000000	     -0.00000000000000000309	     -0.00000000000000001969	    -19.42111973999144700000	    -18.74415463038677700000	     -0.00470103426246862390	    124.93771155638284000000	     99.91226321836610700000	     -0.00000000000000000820	     -0.00000000000000000580
      1.77160000000000010000	     -4.27593476659234370000	     -0.59810621111027773000	     -2.45354528028062680000	      0.93111552495002925000	      1.07929109328724930000	     -0.32182800978556370000	     25.89888855611614500000	      5.80433246572783010000	      2.13430870555689720000	    -16.85459913517420500000	      8.34199333129042490000	     -0.00000000000000005199	     -0.00000000000000000718	     -5.13324093764543840000	      1.55118626150689540000	     -1.93278588457913810000	    -41.20507528106083600000	    -10.41641574572141200000	     -0.00000000000000000976	     -0.00000000000000000762	     -7.93549168810520730000	     -0.62434122893276744000	    -12.34012244524473100000	    -45.67508475091319300000	    -25.76181804016409800000	     -0.19487895973881017000	    100.21148723062097000000	    102.94847228206348000000	     -0.00000000000000000440	     -0.00000000000000002613	    -19.45451460338648900000	    -18.71834550278383700000	      0.01173574678325142700	    124.90252713135213000000	     99.93015196299082000000	     -0.00000000000000002244	     -0.00000000000000000617
      1.77260000000000000000	     -4.23245254039515030000	     -0.62273169421461771000	     -2.48286135221696690000	      0.93117226327144409000	      1.07882952989200100000	     -0.32179126054351992000	     25.82792585466169300000	      5.85747183140097330000	      2.18059811574224670000	    -16.97661380421677900000	      8.28102744043060390000	     -0.00000000000000007345	     -0.00000000000000000878	     -5.06988026346015010000	      1.53121165978483310000	     -1.90670370091724630000	    -41.56200541601421600000	    -10.38486903504199300000	     -0.00000000000000001121	     -0.00000000000000001592	     -7.98446542833319840000	     -0.57472732736105669000	    -12.27122294128406200000	    -45.60354523362983800000	    -25.78923225350008500000	     -0.24645095810138523000	    100.25323713990717000000	    102.99045872773688000000	     -0.00000000000000000547	     -0.00000000000000003845	    -19.48736695294720500000	    -18.69213963571048600000	      0.02893660108708304800	    124.86629623579765000000	     99.94594604360071300000	     -0.00000000000000003720	     -0.00000000000000000651
      1.77360000000000010000	     -4.18947092882514220000	     -0.64876153768137601000	     -2.51224327989580720000	      0.93122569563850599000	      1.07835881621095050000	     -0.32175520004099423000	     25.75885942468474400000	      5.91221761287884280000	      2.22633171080177570000	    -17.10276740279486800000	      8.22180131340821950000	     -0.00000000000000010275	      0.00000000000000000105	     -5.00470199736276640000	      1.50980728616957300000	     -1.88088321652279820000	    -41.92093859666822900000	    -10.34527947690030700000	     -0.00000000000000001323	     -0.00000000000000002304	     -8.03327961582156470000	     -0.52328384649869908000	    -12.20160055182460800000	    -45.53020752733216600000	    -25.81728854895056100000	     -0.29796150978401381000	    100.29407178775301000000	    103.03270088553876000000	     -0.00000000000000000605	     -0.00000000000000005156	    -19.51986612469559300000	    -18.66544170530157800000	      0.04692085486600081800	    124.82885370847443000000	     99.95970761181953900000	     -0.00000000000000005163	     -0.00000000000000000818
      1.77460000000000000000	     -4.14856589398896250000	     -0.67627793866693209000	     -2.54199228267034890000	      0.93127504465389122000	      1.07787631401316020000	     -0.32171927836974612000	     25.69376405938185600000	      5.96881256194843330000	      2.27143007813415170000	    -17.23389799760210600000	      8.16297747993433020000	     -0.00000000000000013193	      0.00000000000000001155	     -4.93587510161374520000	      1.48680706373642150000	     -1.85570350218381370000	    -42.28246887189042300000	    -10.29729891697125200000	     -0.00000000000000001712	     -0.00000000000000002874	     -8.08024552993590990000	     -0.46991943003200481000	    -12.13096563386335300000	    -45.45530401086182300000	    -25.84603568795855100000	     -0.34942691432149997000	    100.33390588284895000000	    103.07514689004114000000	     -0.00000000000000000655	     -0.00000000000000006419	    -19.55214753506349400000	    -18.63818382864588900000	      0.06570241372731260000	    124.79001871630385000000	     99.97149642060796300000	     -0.00000000000000006721	     -0.00000000000000001089
